<svg width="125" height="58" viewBox="0 0 125 58" fill="none" xmlns="http://www.w3.org/2000/svg">
<path d="M0 0H125V57.5H0V0Z" fill="white"/>
<path fill-rule="evenodd" clip-rule="evenodd" d="M120 5H5V52.5H120V5ZM0 0V57.5H125V0H0Z" fill="#EC3131"/>
<path d="M35.9697 40.2344H31.9707V28.5303H30.0225V24.5459H31.9707V23.7988C31.9707 22.832 32.1514 21.9238 32.5127 21.0742C32.8838 20.2246 33.3867 19.4873 34.0215 18.8623C34.666 18.2275 35.4131 17.7295 36.2627 17.3682C37.1123 16.9971 38.0205 16.8115 38.9873 16.8115H41.9902V20.7959H38.9873C38.5576 20.7959 38.1572 20.874 37.7861 21.0303C37.4248 21.1768 37.1074 21.3867 36.834 21.6602C36.5703 21.9238 36.3604 22.2412 36.2041 22.6123C36.0479 22.9736 35.9697 23.3691 35.9697 23.7988V24.5459H40.877V28.5303H35.9697V40.2344Z" fill="#EC3131"/>
<path d="M58.9404 32.0166C58.9404 33.1885 58.7305 34.2822 58.3105 35.2979C57.8906 36.3037 57.3193 37.1777 56.5967 37.9199C55.874 38.6523 55.0244 39.2334 54.0479 39.6631C53.0811 40.083 52.041 40.293 50.9277 40.293C49.8242 40.293 48.7842 40.083 47.8076 39.6631C46.8408 39.2334 45.9912 38.6523 45.2588 37.9199C44.5361 37.1777 43.9648 36.3037 43.5449 35.2979C43.125 34.2822 42.915 33.1885 42.915 32.0166C42.915 30.8252 43.125 29.7217 43.5449 28.7061C43.9648 27.6904 44.5361 26.8164 45.2588 26.084C45.9912 25.3418 46.8408 24.7607 47.8076 24.3408C48.7842 23.9209 49.8242 23.7109 50.9277 23.7109C52.041 23.7109 53.0811 23.9111 54.0479 24.3115C55.0244 24.7021 55.874 25.2637 56.5967 25.9961C57.3193 26.7188 57.8906 27.5928 58.3105 28.6182C58.7305 29.6338 58.9404 30.7666 58.9404 32.0166ZM54.9121 32.0166C54.9121 31.3721 54.8047 30.791 54.5898 30.2734C54.3848 29.7461 54.1016 29.2969 53.7402 28.9258C53.3789 28.5449 52.9541 28.2568 52.4658 28.0615C51.9873 27.8564 51.4746 27.7539 50.9277 27.7539C50.3809 27.7539 49.8633 27.8564 49.375 28.0615C48.8965 28.2568 48.4766 28.5449 48.1152 28.9258C47.7637 29.2969 47.4854 29.7461 47.2803 30.2734C47.0752 30.791 46.9727 31.3721 46.9727 32.0166C46.9727 32.6221 47.0752 33.1836 47.2803 33.7012C47.4854 34.2188 47.7637 34.668 48.1152 35.0488C48.4766 35.4297 48.8965 35.7324 49.375 35.957C49.8633 36.1719 50.3809 36.2793 50.9277 36.2793C51.4746 36.2793 51.9873 36.1768 52.4658 35.9717C52.9541 35.7666 53.3789 35.4785 53.7402 35.1074C54.1016 34.7363 54.3848 34.2871 54.5898 33.7598C54.8047 33.2324 54.9121 32.6514 54.9121 32.0166Z" fill="#EC3131"/>
<path d="M76.1084 32.0605C76.1084 33.2324 75.8984 34.3262 75.4785 35.3418C75.0586 36.3477 74.4873 37.2217 73.7646 37.9639C73.042 38.6963 72.1924 39.2773 71.2158 39.707C70.249 40.127 69.209 40.3369 68.0957 40.3369C66.9922 40.3369 65.9521 40.127 64.9756 39.707C64.0088 39.2773 63.1592 38.6963 62.4268 37.9639C61.7041 37.2217 61.1328 36.3477 60.7129 35.3418C60.293 34.3262 60.083 33.2324 60.083 32.0605C60.083 30.8691 60.293 29.7656 60.7129 28.75C61.1328 27.7344 61.7041 26.8604 62.4268 26.1279C63.1592 25.3857 64.0088 24.8047 64.9756 24.3848C65.9521 23.9648 66.9922 23.7549 68.0957 23.7549C69.209 23.7549 70.249 23.9551 71.2158 24.3555C72.1924 24.7461 73.042 25.3076 73.7646 26.04C74.4873 26.7627 75.0586 27.6367 75.4785 28.6621C75.8984 29.6777 76.1084 30.8105 76.1084 32.0605ZM72.0801 32.0605C72.0801 31.416 71.9727 30.835 71.7578 30.3174C71.5527 29.79 71.2695 29.3408 70.9082 28.9697C70.5469 28.5889 70.1221 28.3008 69.6338 28.1055C69.1553 27.9004 68.6426 27.7979 68.0957 27.7979C67.5488 27.7979 67.0312 27.9004 66.543 28.1055C66.0645 28.3008 65.6445 28.5889 65.2832 28.9697C64.9316 29.3408 64.6533 29.79 64.4482 30.3174C64.2432 30.835 64.1406 31.416 64.1406 32.0605C64.1406 32.666 64.2432 33.2275 64.4482 33.7451C64.6533 34.2627 64.9316 34.7119 65.2832 35.0928C65.6445 35.4736 66.0645 35.7764 66.543 36.001C67.0312 36.2158 67.5488 36.3232 68.0957 36.3232C68.6426 36.3232 69.1553 36.2207 69.6338 36.0156C70.1221 35.8105 70.5469 35.5225 70.9082 35.1514C71.2695 34.7803 71.5527 34.3311 71.7578 33.8037C71.9727 33.2764 72.0801 32.6953 72.0801 32.0605Z" fill="#EC3131"/>
<path d="M93.1592 40.2344H92.1924L90.6396 38.0811C90.2588 38.4229 89.8535 38.7451 89.4238 39.0479C89.0039 39.3408 88.5596 39.5996 88.0908 39.8242C87.6221 40.0391 87.1387 40.21 86.6406 40.3369C86.1523 40.4639 85.6543 40.5273 85.1465 40.5273C84.043 40.5273 83.0029 40.3223 82.0264 39.9121C81.0596 39.4922 80.21 38.916 79.4775 38.1836C78.7549 37.4414 78.1836 36.5674 77.7637 35.5615C77.3438 34.5459 77.1338 33.4424 77.1338 32.251C77.1338 31.0693 77.3438 29.9707 77.7637 28.9551C78.1836 27.9395 78.7549 27.0605 79.4775 26.3184C80.21 25.5762 81.0596 24.9951 82.0264 24.5752C83.0029 24.1553 84.043 23.9453 85.1465 23.9453C85.498 23.9453 85.8594 23.9746 86.2305 24.0332C86.6113 24.0918 86.9775 24.1895 87.3291 24.3262C87.6904 24.4531 88.0273 24.624 88.3398 24.8389C88.6523 25.0537 88.916 25.3174 89.1309 25.6299V18.3057H93.1592V40.2344ZM89.1309 32.251C89.1309 31.7041 89.0234 31.1768 88.8086 30.6689C88.6035 30.1514 88.3203 29.6973 87.959 29.3066C87.5977 28.9062 87.1729 28.5889 86.6846 28.3545C86.2061 28.1104 85.6934 27.9883 85.1465 27.9883C84.5996 27.9883 84.082 28.0859 83.5938 28.2812C83.1152 28.4766 82.6953 28.7598 82.334 29.1309C81.9824 29.4922 81.7041 29.9365 81.499 30.4639C81.2939 30.9912 81.1914 31.5869 81.1914 32.251C81.1914 32.8271 81.2939 33.374 81.499 33.8916C81.7041 34.4092 81.9824 34.8633 82.334 35.2539C82.6953 35.6445 83.1152 35.9521 83.5938 36.1768C84.082 36.4014 84.5996 36.5137 85.1465 36.5137C85.6934 36.5137 86.2061 36.3965 86.6846 36.1621C87.1729 35.918 87.5977 35.6006 87.959 35.21C88.3203 34.8096 88.6035 34.3555 88.8086 33.8477C89.0234 33.3301 89.1309 32.7979 89.1309 32.251Z" fill="#EC3131"/>
<path d="M115.993 39.514L114.617 29.1945H114.655C115.059 29.1945 115.387 28.867 115.387 28.463V13.5875C115.387 13.3305 115.253 13.0933 115.033 12.9609C114.813 12.8285 114.541 12.8206 114.314 12.9403C111.461 14.4455 109.676 17.4052 109.676 20.6316V26.9038C109.676 28.1687 110.701 29.1945 111.967 29.1945H112.14L110.764 39.5139C110.664 40.267 110.894 41.0281 111.394 41.5997C111.895 42.1715 112.619 42.4999 113.379 42.4999C114.139 42.4999 114.862 42.1715 115.363 41.5997C115.864 41.0281 116.093 40.2671 115.993 39.514Z" fill="#EC3131"/>
<path d="M104.529 12.5C103.974 12.5 103.525 12.9492 103.525 13.5041V19.1134H102.521V13.5041C102.521 12.9492 102.072 12.5 101.517 12.5C100.962 12.5 100.513 12.9492 100.513 13.5041V19.1134H99.5084V13.5041C99.5083 12.9492 99.0592 12.5 98.5042 12.5C97.9491 12.5 97.5 12.9492 97.5 13.5041V22.5673C97.5 24.0569 98.7071 25.264 100.197 25.264H100.419L98.8366 39.5061C98.7523 40.268 98.9964 41.03 99.5073 41.6018C100.019 42.1735 100.75 42.5 101.517 42.5C102.284 42.5 103.014 42.1735 103.526 41.6018C104.037 41.03 104.281 40.268 104.197 39.5061L102.614 25.2641H102.837C104.326 25.2641 105.534 24.057 105.534 22.5674V13.5041C105.533 12.9492 105.084 12.5 104.529 12.5Z" fill="#EC3131"/>
<path d="M20.2188 30.0156H14.375L14.3438 26.7969H19.25C20.1146 26.7969 20.8229 26.6875 21.375 26.4688C21.9271 26.2396 22.3385 25.9115 22.6094 25.4844C22.8906 25.0469 23.0312 24.5156 23.0312 23.8906C23.0312 23.1823 22.8958 22.6094 22.625 22.1719C22.3646 21.7344 21.9531 21.4167 21.3906 21.2188C20.8385 21.0208 20.125 20.9219 19.25 20.9219H16V40H11.3125V17.25H19.25C20.5729 17.25 21.7552 17.375 22.7969 17.625C23.849 17.875 24.7396 18.2552 25.4688 18.7656C26.1979 19.276 26.7552 19.9219 27.1406 20.7031C27.526 21.474 27.7188 22.3906 27.7188 23.4531C27.7188 24.3906 27.5052 25.2552 27.0781 26.0469C26.6615 26.8385 26 27.4844 25.0938 27.9844C24.1979 28.4844 23.026 28.7604 21.5781 28.8125L20.2188 30.0156ZM20.0156 40H13.0938L14.9219 36.3438H20.0156C20.8385 36.3438 21.5104 36.2135 22.0312 35.9531C22.5521 35.6823 22.9375 35.3177 23.1875 34.8594C23.4375 34.401 23.5625 33.875 23.5625 33.2812C23.5625 32.6146 23.4479 32.0365 23.2188 31.5469C23 31.0573 22.6458 30.6823 22.1562 30.4219C21.6667 30.151 21.0208 30.0156 20.2188 30.0156H15.7031L15.7344 26.7969H21.3594L22.4375 28.0625C23.8229 28.0417 24.9375 28.2865 25.7812 28.7969C26.6354 29.2969 27.2552 29.9479 27.6406 30.75C28.0365 31.5521 28.2344 32.4115 28.2344 33.3281C28.2344 34.7865 27.9167 36.0156 27.2812 37.0156C26.6458 38.0052 25.7135 38.75 24.4844 39.25C23.2656 39.75 21.776 40 20.0156 40Z" fill="#EC3131"/>
</svg>
